<?xml version="1.0" encoding="utf-8"?>
<!-- Generator: Adobe Illustrator 16.0.0, SVG Export Plug-In . SVG Version: 6.00 Build 0)  -->
<!DOCTYPE svg PUBLIC "-//W3C//DTD SVG 1.1//EN" "http://www.w3.org/Graphics/SVG/1.1/DTD/svg11.dtd">
<svg version="1.1" id="Layer_1" xmlns="http://www.w3.org/2000/svg" xmlns:xlink="http://www.w3.org/1999/xlink" x="0px" y="0px"
	 width="100px" height="100px" viewBox="0 0 100 100" enable-background="new 0 0 100 100" xml:space="preserve">
<g>
	<path fill="#979797" d="M79.526,20.554l5.342-5.338c-19.302-19.3-50.59-19.298-69.887-0.001l-0.001,0.001l5.339,5.338
		C36.668,4.204,63.178,4.203,79.526,20.554z"/>
	<path fill="#ED1F24" d="M79.526,79.764l5.342,5.339V85.1c19.297-19.297,19.297-50.585,0-69.883l-5.342,5.338
		C95.879,36.906,95.879,63.414,79.526,79.764z"/>
	<path fill="#01A64F" d="M20.32,20.554l-5.339-5.338C-4.318,34.514-4.318,65.802,14.981,85.1l5.338-5.337
		C3.969,63.41,3.971,36.903,20.32,20.554z"/>
	<path fill="#1CBBB4" d="M84.868,85.103l-5.342-5.339c-16.349,16.35-42.855,16.351-59.207-0.001L14.981,85.1
		C34.281,104.399,65.566,104.4,84.868,85.103z"/>
</g>
<g>
	<path fill="#FFFFFF" d="M39.958,15.446h21.628l-4.924,53.578h-11.78L39.958,15.446z M56.821,74.146v11.937H44.725V74.146H56.821z"
		/>
</g>
</svg>
