<?xml version="1.0" encoding="utf-8"?>
<!-- Generator: Adobe Illustrator 16.0.0, SVG Export Plug-In . SVG Version: 6.00 Build 0)  -->
<!DOCTYPE svg PUBLIC "-//W3C//DTD SVG 1.1//EN" "http://www.w3.org/Graphics/SVG/1.1/DTD/svg11.dtd">
<svg version="1.1" id="Layer_1" xmlns="http://www.w3.org/2000/svg" xmlns:xlink="http://www.w3.org/1999/xlink" x="0px" y="0px"
	 width="100px" height="100px" viewBox="0 0 100 100" enable-background="new 0 0 100 100" xml:space="preserve">
<g>
	<circle fill="#5D5E5E" cx="49.926" cy="49.044" r="39.154"/>
</g>
<g>
	<path fill="#979797" d="M77.613,21.358l4.991-4.992C64.557-1.683,35.295-1.682,17.249,16.365l-0.001,0.001l4.993,4.992
		C37.53,6.067,62.321,6.066,77.613,21.358z"/>
	<path fill="#ED1F24" d="M77.613,76.73l4.991,4.991v-0.001c18.048-18.047,18.048-47.308,0-65.355l-4.991,4.992
		C92.904,36.65,92.902,61.439,77.613,76.73z"/>
	<path fill="#01A64F" d="M22.241,21.358l-4.993-4.992C-0.799,34.413-0.799,63.673,17.249,81.721l4.992-4.992
		C6.951,61.438,6.952,36.647,22.241,21.358z"/>
	<path fill="#1CBBB4" d="M82.604,81.722l-4.991-4.991c-15.29,15.289-40.08,15.29-55.372-0.002l-4.992,4.992
		C35.298,99.77,64.557,99.771,82.604,81.722z"/>
</g>
<g>
	<path fill="#FFFFFF" d="M39.814,16.013h20.225l-4.604,50.106H44.419L39.814,16.013z M55.583,70.91v11.163H44.271V70.91H55.583z"/>
</g>
</svg>
