<?xml version="1.0" encoding="utf-8"?>
<!-- Generator: Adobe Illustrator 16.0.0, SVG Export Plug-In . SVG Version: 6.00 Build 0)  -->
<!DOCTYPE svg PUBLIC "-//W3C//DTD SVG 1.1//EN" "http://www.w3.org/Graphics/SVG/1.1/DTD/svg11.dtd">
<svg version="1.1" id="Layer_1" xmlns="http://www.w3.org/2000/svg" xmlns:xlink="http://www.w3.org/1999/xlink" x="0px" y="0px"
	 width="100px" height="100px" viewBox="0 0 100 100" enable-background="new 0 0 100 100" xml:space="preserve">
<g>
	<path fill-rule="evenodd" clip-rule="evenodd" fill="#00A64F" d="M99.082,68.327c0,4.513-6.275,8.171-14.019,8.171H14.937
		c-7.743,0-14.02-3.658-14.02-8.171V27.455c0-4.512,6.276-8.171,14.02-8.171h70.127c7.743,0,14.019,3.659,14.019,8.171V68.327z"/>
</g>
<g>
	<g>
		<path fill-rule="evenodd" clip-rule="evenodd" fill="#FFFFFF" d="M8.101,34.625c0.008-0.035,0.018-0.071,0.021-0.107
			c0.026-0.278,0.046-0.558,0.076-0.835c0.051-0.466,0.146-0.924,0.275-1.375c0.444-1.55,1.292-2.832,2.543-3.849
			c0.818-0.665,1.733-1.16,2.715-1.535c0.833-0.318,1.691-0.544,2.57-0.693c0.508-0.085,1.02-0.146,1.535-0.171
			c0.02-0.001,0.04,0,0.071,0c0.004,0.041,0.01,0.079,0.012,0.118c0.008,0.25,0.016,0.499,0.022,0.748
			c0.023,0.818,0.045,1.637,0.069,2.455c0.036,1.236,0.075,2.472,0.111,3.708c0.016,0.526,0.03,1.051,0.046,1.576
			c0.032,1.075,0.063,2.149,0.096,3.223c0.012,0.421,0.021,0.842,0.037,1.263c0.003,0.068-0.035,0.085-0.081,0.107
			c-0.376,0.178-0.729,0.393-1.048,0.662c-0.687,0.58-1.099,1.316-1.247,2.202c-0.111,0.665-0.062,1.322,0.091,1.975
			c0.081,0.345,0.195,0.677,0.356,0.995c1.473,2.915,2.963,5.821,4.507,8.7c0.694,1.294,1.4,2.582,2.142,3.849
			c0.371,0.634,0.748,1.264,1.177,1.86c0.313,0.436,0.693,0.797,1.171,1.05c0.31,0.163,0.639,0.269,0.986,0.317
			c0.644,0.09,1.268-0.006,1.88-0.209c0.343-0.113,0.673-0.257,0.986-0.438c0.011-0.007,0.024-0.011,0.042-0.019
			c3.474,2.731,6.947,5.463,10.434,8.203c-0.038,0.025-0.066,0.047-0.096,0.065c-0.861,0.546-1.768,1.004-2.705,1.404
			c-1.477,0.631-2.997,1.13-4.559,1.506c-0.019,0.004-0.037,0.014-0.056,0.02c-0.876,0-1.752,0-2.628,0
			c-0.019-0.006-0.037-0.016-0.056-0.019c-0.595-0.085-1.176-0.227-1.747-0.412c-1.055-0.343-2.047-0.824-2.994-1.4
			c-1.106-0.673-2.129-1.457-3.1-2.311c-1.1-0.968-2.119-2.016-3.086-3.114c-1.101-1.25-2.127-2.56-3.108-3.904
			c-0.879-1.206-1.715-2.443-2.542-3.685c-0.522-0.784-0.97-1.608-1.367-2.463c-0.397-0.852-0.741-1.725-1.047-2.614
			c-0.592-1.721-1.041-3.481-1.391-5.267c-0.125-0.634-0.233-1.271-0.339-1.909c-0.078-0.469-0.144-0.938-0.206-1.409
			c-0.063-0.474-0.119-0.949-0.171-1.424c-0.049-0.442-0.095-0.884-0.132-1.328c-0.042-0.486-0.079-0.973-0.108-1.461
			C8.22,38.037,8.189,37.39,8.16,36.745c-0.018-0.377-0.027-0.754-0.042-1.131c-0.001-0.04-0.012-0.079-0.018-0.118
			C8.101,35.205,8.101,34.916,8.101,34.625z"/>
	</g>
</g>
<g>
	<path fill="#FFFFFF" d="M49.415,29.913v34.989h-8.731V46.143c0-2.708-0.064-4.337-0.194-4.884s-0.486-0.961-1.07-1.243
		c-0.583-0.281-1.884-0.421-3.901-0.421h-0.864v-4.079c4.221-0.909,7.427-2.776,9.617-5.603H49.415z"/>
	<path fill="#FFFFFF" d="M66.271,29.913v34.989h-8.73V46.143c0-2.708-0.065-4.337-0.194-4.884c-0.13-0.547-0.487-0.961-1.071-1.243
		c-0.582-0.281-1.883-0.421-3.9-0.421h-0.864v-4.079c4.222-0.909,7.428-2.776,9.617-5.603H66.271z"/>
	<path fill="#FFFFFF" d="M88.488,58.937v5.965H69.275l0.006-4.992c5.69-9.308,9.072-15.066,10.146-17.278
		c1.073-2.212,1.611-3.937,1.611-5.176c0-0.951-0.162-1.66-0.487-2.128s-0.819-0.703-1.482-0.703c-0.664,0-1.158,0.259-1.482,0.778
		c-0.325,0.519-0.487,1.549-0.487,3.091v3.328h-7.823v-1.275c0-1.959,0.101-3.504,0.303-4.636c0.202-1.131,0.698-2.244,1.491-3.339
		c0.792-1.095,1.822-1.923,3.09-2.485c1.269-0.562,2.788-0.843,4.561-0.843c3.473,0,6.098,0.861,7.877,2.583s2.669,3.9,2.669,6.537
		c0,2.003-0.5,4.121-1.502,6.354c-1.002,2.233-3.952,6.973-8.85,14.22H88.488z"/>
</g>
</svg>
