<?xml version="1.0" encoding="utf-8"?>
<!-- Generator: Adobe Illustrator 16.0.0, SVG Export Plug-In . SVG Version: 6.00 Build 0)  -->
<!DOCTYPE svg PUBLIC "-//W3C//DTD SVG 1.1//EN" "http://www.w3.org/Graphics/SVG/1.1/DTD/svg11.dtd">
<svg version="1.1" id="Layer_1" xmlns="http://www.w3.org/2000/svg" xmlns:xlink="http://www.w3.org/1999/xlink" x="0px" y="0px"
	 width="100px" height="100px" viewBox="0 0 100 100" enable-background="new 0 0 100 100" xml:space="preserve">
<g>
	<path fill-rule="evenodd" clip-rule="evenodd" d="M87.302,74.148c-0.541,0.026-0.967,0.063-1.393,0.063
		c-23.756,0.004-47.513,0.005-71.27,0.006c-0.299,0-0.6-0.026-0.899-0.019c-0.605,0.016-0.827-0.29-0.804-0.868
		c0.022-0.565,0.003-1.133,0.003-1.7c-0.002-15.782-0.005-31.564-0.007-47.346c0-1.324,0.089-1.396,1.428-1.396
		c23.757,0,47.512-0.002,71.27-0.004c1.662,0,1.663,0.001,1.665,1.707c0.004,3.003,0.004,6.005,0.006,9.009
		c0.001,1.365,0.01,1.318,1.412,1.381c1.149,0.053,2.315,0.135,3.43,0.398c2.064,0.489,3.264,1.98,3.279,4.16
		c0.046,6.306,0.074,12.613-0.018,18.917c-0.037,2.521-1.545,3.491-4.213,3.924c-0.881,0.142-1.802,0.12-2.696,0.066
		c-0.945-0.057-1.218,0.343-1.207,1.23c0.033,3.07,0.013,6.139,0.014,9.21C87.302,73.28,87.302,73.673,87.302,74.148z M81.24,29.387
		c-0.488-0.054-0.849-0.129-1.209-0.128c-7.641,0.01-15.281,0.039-22.922,0.043C44.896,29.308,32.684,29.3,20.47,29.298
		c-1.474,0-1.474,0-1.474,1.468c0,11.947,0,23.893,0,35.838c0,1.427,0.003,1.427,1.461,1.427c19.789,0,39.576,0,59.365,0
		c1.416,0,1.418,0.002,1.418-1.403c0-12.046,0-24.092,0-36.139C81.24,30.159,81.24,29.829,81.24,29.387z"/>
</g>
<path fill-rule="evenodd" clip-rule="evenodd" fill="#00A64F" d="M34.18,63.242c0,1.328-1.076,2.403-2.403,2.403h-8.209
	c-1.327,0-2.403-1.075-2.403-2.403V34.209c0-1.327,1.076-2.403,2.403-2.403h8.209c1.327,0,2.403,1.076,2.403,2.403V63.242z"/>
<path fill-rule="evenodd" clip-rule="evenodd" fill="#00A64F" d="M49.598,63.242c0,1.328-1.077,2.403-2.402,2.403h-8.21
	c-1.327,0-2.402-1.075-2.402-2.403V34.209c0-1.327,1.076-2.403,2.402-2.403h8.21c1.326,0,2.402,1.076,2.402,2.403V63.242z"/>
</svg>
