<?xml version="1.0" encoding="utf-8"?>
<!-- Generator: Adobe Illustrator 16.0.0, SVG Export Plug-In . SVG Version: 6.00 Build 0)  -->
<!DOCTYPE svg PUBLIC "-//W3C//DTD SVG 1.1//EN" "http://www.w3.org/Graphics/SVG/1.1/DTD/svg11.dtd">
<svg version="1.1" id="Layer_1" xmlns="http://www.w3.org/2000/svg" xmlns:xlink="http://www.w3.org/1999/xlink" x="0px" y="0px"
	 width="100px" height="100px" viewBox="0 0 100 100" enable-background="new 0 0 100 100" xml:space="preserve">
<path fill="#ED1F24" d="M50.425,85.962c19.882,0,36-16.118,36-36c0-19.882-16.118-36-36-36s-36,16.118-36,36
	C14.425,69.844,30.543,85.962,50.425,85.962z M31.086,56.059c0.67,0.844,0.792,1.939,2.056,2.709
	c0.029-0.466,0.113-0.74,0.047-0.988c-0.22-0.809-0.459-1.618-0.761-2.411c-1.521-4.015-1.109-7.878,1.441-11.576
	c0.179-0.261,0.451-0.481,0.754-0.796c0.715,1.58,0.659,3.274,2.243,4.564c0.667-2.228,1.252-4.299,1.911-6.357
	c0.667-2.081,1.726-4.038,3.366-5.769c0.411-0.434,0.998-0.767,1.504-1.146c0.313,1.707-0.062,3.314,0.969,4.879
	c0.136-0.231,0.236-0.355,0.284-0.491c0.927-2.551,2.481-4.844,4.547-6.941c1.555-1.579,2.454-3.396,2.95-5.342
	c0.094-0.366,0.198-0.731,0.299-1.098c0.102-0.02,0.201-0.04,0.305-0.06c0.317,0.48,0.78,0.936,0.923,1.446
	c0.301,1.068,0.518,2.161,0.615,3.252c0.147,1.633,0.112,3.277,0.258,4.91c0.055,0.621,0.395,1.226,0.604,1.837
	c0.107-0.003,0.215-0.006,0.322-0.009c0.251-0.354,0.464-0.729,0.76-1.057c0.79-0.87,1.568-1.752,2.454-2.559
	c0.303-0.276,0.912-0.346,1.551-0.569c-1.691,4.745-0.519,9.069,1.332,13.53c1.354-1.635,1.909-3.587,4.568-4.419
	c-0.517,4.021,0.089,7.799,0.982,11.573c1.062-0.723,2.035-1.384,2.986-2.031c-0.034,1.539-0.319,2.924-0.043,4.235
	c0.77,3.651,0.41,7.161-1.476,10.56c-1.584,2.855-4.1,4.9-8.106,5.569c-1.72,0.286-3.449,0.254-5.283-0.251
	c2.835-1.083,5.065-2.525,6.453-4.653c1.339-2.05-0.112-7.868-0.391-8.913c-0.272-1.025-1.585-2.958-2.396-3.644
	c0.625,2.302,0.588,5.595-0.126,7.103c-0.623,1.715-2.584,2.934-3.812,3.09c3.32-4.07,1.077-7.039-0.562-10.438
	c-0.846,2.088-1.022,4.459-2.962,6.023c-3.341-3.721-2.75-7.856-2.579-11.96c-2.641,3.369-4.935,8.125-2.704,12.304
	c-2.421-0.913-4.122-2.791-4.397-5.402c-2.224,2.121-2.519,5.158-2.521,5.227c-0.265,4.291,2.067,6.094,5.614,8.043
	c1.429,0.784,2.946,1.469,4.424,2.203c0.354,0.178,0.699,0.366,1.093,0.571c-3.316,1.706-11.208,0.999-15.9-2.718
	C30.171,64.516,29.156,59.311,31.086,56.059z"/>
<path fill="#FFFFFF" d="M34.683,68.09c4.692,3.717,12.584,4.424,15.9,2.718c-0.394-0.205-0.738-0.394-1.093-0.571
	c-1.478-0.734-2.995-1.419-4.424-2.203c-3.547-1.949-5.879-3.752-5.614-8.043c0.003-0.068,0.298-3.105,2.521-5.227
	c0.275,2.611,1.977,4.489,4.397,5.402c-2.23-4.18,0.063-8.936,2.704-12.304c-0.171,4.104-0.762,8.24,2.579,11.96
	c1.939-1.564,2.116-3.936,2.962-6.023c1.639,3.398,3.882,6.367,0.562,10.438c1.228-0.156,3.188-1.375,3.812-3.09
	c0.714-1.508,0.751-4.801,0.126-7.103c0.812,0.686,2.124,2.618,2.396,3.644c0.278,1.045,1.729,6.863,0.391,8.913
	c-1.388,2.128-3.618,3.57-6.453,4.653c1.834,0.505,3.563,0.537,5.283,0.251c4.007-0.669,6.522-2.714,8.106-5.569
	c1.886-3.398,2.245-6.908,1.476-10.56c-0.276-1.312,0.009-2.696,0.043-4.235c-0.951,0.647-1.924,1.309-2.986,2.031
	c-0.894-3.774-1.499-7.552-0.982-11.573c-2.659,0.832-3.214,2.784-4.568,4.419c-1.851-4.461-3.023-8.786-1.332-13.53
	c-0.639,0.223-1.248,0.292-1.551,0.569c-0.886,0.807-1.664,1.689-2.454,2.559c-0.296,0.329-0.509,0.704-0.76,1.057
	c-0.107,0.003-0.215,0.006-0.322,0.009c-0.21-0.612-0.55-1.217-0.604-1.837c-0.146-1.633-0.11-3.277-0.258-4.91
	c-0.098-1.091-0.314-2.184-0.615-3.252c-0.143-0.51-0.605-0.965-0.923-1.446c-0.104,0.02-0.203,0.04-0.305,0.06
	c-0.101,0.366-0.205,0.731-0.299,1.098c-0.496,1.946-1.396,3.764-2.95,5.342c-2.065,2.097-3.62,4.39-4.547,6.941
	c-0.048,0.135-0.148,0.26-0.284,0.491c-1.03-1.565-0.655-3.173-0.969-4.879c-0.506,0.379-1.093,0.712-1.504,1.146
	c-1.641,1.731-2.699,3.688-3.366,5.769c-0.659,2.058-1.244,4.129-1.911,6.357c-1.584-1.29-1.528-2.984-2.243-4.564
	c-0.303,0.315-0.575,0.536-0.754,0.796c-2.551,3.698-2.963,7.562-1.441,11.576c0.302,0.793,0.541,1.603,0.761,2.411
	c0.066,0.248-0.018,0.522-0.047,0.988c-1.264-0.77-1.386-1.865-2.056-2.709C29.156,59.311,30.171,64.516,34.683,68.09z"/>
</svg>
