<?xml version="1.0" encoding="utf-8"?>
<!-- Generator: Adobe Illustrator 16.0.0, SVG Export Plug-In . SVG Version: 6.00 Build 0)  -->
<!DOCTYPE svg PUBLIC "-//W3C//DTD SVG 1.1//EN" "http://www.w3.org/Graphics/SVG/1.1/DTD/svg11.dtd">
<svg version="1.1" id="Layer_1" xmlns="http://www.w3.org/2000/svg" xmlns:xlink="http://www.w3.org/1999/xlink" x="0px" y="0px"
	 width="100px" height="100px" viewBox="0 0 100 100" enable-background="new 0 0 100 100" xml:space="preserve">
<path fill="#1CBBB4" d="M50.425,13.958c-19.882,0-36,16.118-36,36c0,19.882,16.118,36,36,36s36-16.118,36-36
	C86.425,30.076,70.307,13.958,50.425,13.958z M71.734,47.768c-0.513,3.634-2.161,6.871-4.72,9.5c-3.08,3.166-16.59,15.4-16.59,15.4
	s-13.51-12.234-16.59-15.4c-2.559-2.629-4.207-5.865-4.72-9.5c-0.461-3.264,0.953-8.051,3.365-10.298
	c2.272-2.118,8.461-3.595,11.439-2.712c6.057,1.794,6.057,6.953,6.505,6.28c0.448,0.673,0.449-4.486,6.505-6.28
	c2.979-0.883,9.167,0.594,11.439,2.712C70.781,39.717,72.195,44.504,71.734,47.768z"/>
<path fill="#FFFFFF" d="M56.93,34.758c-6.056,1.794-6.057,6.953-6.505,6.28c-0.448,0.673-0.448-4.486-6.505-6.28
	c-2.979-0.883-9.167,0.594-11.439,2.712c-2.412,2.247-3.826,7.034-3.365,10.298c0.513,3.634,2.161,6.871,4.72,9.5
	c3.08,3.166,16.59,15.4,16.59,15.4s13.51-12.234,16.59-15.4c2.559-2.629,4.207-5.865,4.72-9.5c0.461-3.264-0.953-8.051-3.365-10.298
	C66.097,35.353,59.908,33.875,56.93,34.758z"/>
</svg>
