<?xml version="1.0" encoding="utf-8"?>
<!-- Generator: Adobe Illustrator 16.0.0, SVG Export Plug-In . SVG Version: 6.00 Build 0)  -->
<!DOCTYPE svg PUBLIC "-//W3C//DTD SVG 1.1//EN" "http://www.w3.org/Graphics/SVG/1.1/DTD/svg11.dtd">
<svg version="1.1" id="Layer_1" xmlns="http://www.w3.org/2000/svg" xmlns:xlink="http://www.w3.org/1999/xlink" x="0px" y="0px"
	 width="100px" height="100px" viewBox="0 0 100 100" enable-background="new 0 0 100 100" xml:space="preserve">
<g>
	<path fill="#71C9C4" d="M91.27,45.29c0-18.176-17.749-32.91-39.645-32.91c-21.895,0-39.645,14.734-39.645,32.91
		c0,18.175,17.75,32.91,39.645,32.91c6.271,0,12.201-1.21,17.473-3.362c3.17,2.446,10.096,6.681,13.305,11.952
		c2.702,4.438,2.418-9.893,0.54-18.998C89.637,62.28,91.27,55.135,91.27,45.29z M31.358,53.708c-4.058,0-7.347-3.289-7.347-7.347
		c0-4.058,3.289-7.347,7.347-7.347c4.058,0,7.347,3.29,7.347,7.347C38.706,50.419,35.416,53.708,31.358,53.708z M51.625,53.708
		c-4.058,0-7.347-3.289-7.347-7.347c0-4.058,3.29-7.347,7.347-7.347s7.348,3.29,7.348,7.347
		C58.973,50.419,55.683,53.708,51.625,53.708z M72.321,53.708c-4.058,0-7.348-3.289-7.348-7.347c0-4.058,3.29-7.347,7.348-7.347
		s7.348,3.29,7.348,7.347C79.669,50.419,76.379,53.708,72.321,53.708z"/>
</g>
</svg>
