<?xml version="1.0" encoding="utf-8"?>
<!-- Generator: Adobe Illustrator 16.0.0, SVG Export Plug-In . SVG Version: 6.00 Build 0)  -->
<!DOCTYPE svg PUBLIC "-//W3C//DTD SVG 1.1//EN" "http://www.w3.org/Graphics/SVG/1.1/DTD/svg11.dtd">
<svg version="1.1" id="Layer_1" xmlns="http://www.w3.org/2000/svg" xmlns:xlink="http://www.w3.org/1999/xlink" x="0px" y="0px"
	 width="100px" height="100px" viewBox="0 0 100 100" enable-background="new 0 0 100 100" xml:space="preserve">
<path fill="#01A64F" d="M34.141,67.848c0.246-0.686,0.419-1.164,0.653-1.818c-0.918,0-1.67,0-2.75,0
	C32.861,66.738,33.443,67.244,34.141,67.848z"/>
<path fill="#01A64F" d="M31.09,69.988c0.726-0.35,1.271-0.613,1.943-0.938c-0.699-0.646-1.243-1.148-1.943-1.795
	C31.09,68.214,31.09,68.992,31.09,69.988z"/>
<path fill="#01A64F" d="M56.546,54.838c-0.592,0.168-1.369,0.734-1.487,1.25c-0.134,0.586,0.242,1.417,0.644,1.958
	c0.331,0.448,0.991,0.722,1.56,0.912c2.152,0.722,4.299,0.479,6.521-0.093C62.678,55.947,59.254,54.068,56.546,54.838z"/>
<path fill="#01A64F" d="M50.425,14.449c-19.882,0-36,16.118-36,36c0,19.883,16.118,36,36,36s36-16.117,36-36
	C86.425,30.567,70.307,14.449,50.425,14.449z M32.835,47.989l6.76-2.06l-3.436-6.623l8.269,1.465l2.404-7.589l3.951,5.65l6.02-6.108
	l1.46,8.401l-3.207-0.07l-0.3-2.148l-2.293,2.328l-2.058,2.088l-1.679-2.403l-0.909-1.3l-0.527,1.66l-0.878,2.771l-2.861-0.507
	l-2.145-0.379l0.991,1.912l1.349,2.602l-2.802,0.854l-1.34,0.511l-7.639-0.787L32.835,47.989z M31.22,72.732
	c-1.139-0.977-2.2-2.041-3.175-3.18c0.479,0.168,0.922,0.323,1.461,0.513c-0.048-0.916-0.084-1.644-0.145-2.833
	c-0.674,0.747-1.152,1.279-1.69,1.876c-0.346-0.421-0.68-0.854-1.002-1.294c0.476-0.533,0.896-1.004,1.436-1.607
	c-0.959,0.044-1.656,0.077-2.463,0.114c-0.896-1.399-1.675-2.88-2.324-4.428c1.204-2.469,3.719-4.148,6.693-4.167
	c4.213-0.027,7.548,3.287,7.556,7.508C37.574,69.023,34.815,72.17,31.22,72.732z M51.802,66.603
	c-0.062,0.255-1.34,1.215-1.574,1.218c-4.091,0.037-8.183,0.026-12.276,0.026c0.969-4.083-0.061-7.616-3.896-9.895
	c-3.1-1.842-6.311-1.604-9.177,0.567c-0.856,0.648-1.533,1.36-2.052,2.129c-1.144-3.121-1.768-6.494-1.768-10.013
	c0-0.061,0.002-0.123,0.003-0.184c1.346-0.025,2.69-0.05,4.036-0.076c0.263-0.005,0.523-0.085,1.215-0.205
	c-1.702-1.302-3.338-2.559-4.943-3.788c0.175-1.195,0.422-2.366,0.737-3.51c2.976,2.088,6.041,4.056,9.146,5.945
	c0.844,0.513,1.989,0.687,3.007,0.726c3.646,0.143,7.218,0.616,10.521,2.239c0.951,0.467,1.992,3.285,1.992,3.285
	s1.113-0.842,1.896-0.404c0.205,0.238,0.42,1.324,0.596,1.573c0.297,0.839,0.284,1.772,0.284,1.772s1.44-0.238,1.568,0.41
	c0.001,0.002-0.089,1.19-0.089,1.191c0.115,0.599-0.396,2.668-0.396,2.668S52.332,64.452,51.802,66.603z M79.145,47.822
	c0.089,0.926,0.136,1.864,0.136,2.813c0,2.286-0.265,4.511-0.763,6.645c-4.627-0.487-9.255-0.976-13.882-1.464
	c-0.02,0.193-0.039,0.386-0.06,0.578l13.801,1.463c-0.063,0.249-0.13,0.496-0.199,0.742c-4.188-0.439-8.377-0.88-12.565-1.319
	c-0.02,0.192-0.04,0.384-0.061,0.576c4.152,0.438,8.304,0.878,12.456,1.316c-0.077,0.249-0.155,0.495-0.237,0.741
	c-3.761-0.398-7.521-0.797-11.281-1.195c-0.02,0.192-0.041,0.385-0.062,0.578c3.715,0.395,7.43,0.789,11.144,1.185
	c-0.545,1.519-1.214,2.978-1.993,4.368c-4.942-0.524-9.89-1.049-14.873-1.576c-0.157,1.533-0.296,2.924-0.444,4.314
	c-0.188,1.756-0.844,2.388-2.601,2.18c-3.332-0.395-4.704,0.125-3.971-4.391c0.063-0.392,0.071-0.792,0.138-1.182
	c0.188-1.105,0.166-2.015-0.768-2.967c-0.663-0.676-0.416-1.34-0.674-2.719c-0.131-0.706-0.929-1.99-0.938-2.746
	c-0.01-0.732,0.925-1.521,1.039-2.219c0.217-1.342-0.213-2.492,0.51-3.271c0.684-0.734,1.311-1.52,1.983-2.306
	c-2.193-0.602-2.115-0.595-1.924-2.918c0.314-3.827,0.396-3.571,3.866-3.036c1.353,0.208,2.07-0.112,2.49-1.498
	c0.509-1.679,1.281-3.278,1.943-4.909c0.559-1.377,1.74-2.159,3.228-2.004c3.307,0.344,6.612,0.696,9.918,1.05
	c0.637,0.968,1.217,1.975,1.737,3.018c-3.712-0.396-7.425-0.788-11.136-1.191c-0.609-0.066-1.057-0.044-1.336,0.67
	c-1.107,2.825-2.281,5.625-3.527,8.674C66.583,46.494,72.864,47.158,79.145,47.822z"/>
<path fill="#01A64F" d="M30.605,60.405c0.085,1.062,0.144,1.806,0.225,2.818c0.699-0.763,1.207-1.316,1.859-2.026
	C31.959,60.92,31.424,60.717,30.605,60.405z"/>
<path fill="#01A64F" d="M27.113,61.479c0.726,0.662,1.287,1.174,2.133,1.946c-0.098-1.192-0.159-1.95-0.241-2.942
	C28.28,60.863,27.752,61.142,27.113,61.479z"/>
<path fill="#01A64F" d="M25.307,64.559c0.912,0,1.705,0,2.802,0c-0.814-0.742-1.402-1.279-2.129-1.941
	C25.712,63.391,25.517,63.953,25.307,64.559z"/>
<path fill="#01A64F" d="M34.782,64.275c-0.339-0.735-0.587-1.275-0.916-1.992c-0.684,0.756-1.192,1.319-1.803,1.992
	C33.026,64.275,33.773,64.275,34.782,64.275z"/>
<polygon fill="#FFFFFF" points="40.944,48.53 43.746,47.677 42.397,45.075 41.406,43.163 43.551,43.542 46.412,44.05 47.29,41.279 
	47.817,39.619 48.727,40.919 50.405,43.322 52.463,41.234 54.756,38.907 55.056,41.055 58.263,41.125 56.803,32.724 50.783,38.832 
	46.832,33.182 44.428,40.771 36.159,39.306 39.595,45.929 32.835,47.989 31.966,48.254 39.604,49.042 "/>
<path fill="#FFFFFF" d="M65.103,36.479c3.711,0.403,7.424,0.794,11.136,1.191c-0.521-1.043-1.101-2.05-1.737-3.018
	c-3.306-0.354-6.611-0.706-9.918-1.05c-1.487-0.155-2.669,0.627-3.228,2.004c-0.662,1.631-1.435,3.23-1.943,4.909
	c-0.42,1.386-1.138,1.706-2.49,1.498c-3.471-0.535-3.552-0.791-3.866,3.036c-0.191,2.323-0.27,2.317,1.924,2.918
	c-0.673,0.786-1.3,1.571-1.983,2.306c-0.723,0.779-0.293,1.929-0.51,3.271c-0.114,0.698-1.049,1.486-1.039,2.219
	c0.01,0.756,0.808,2.04,0.938,2.746c0.258,1.379,0.011,2.043,0.674,2.719c0.934,0.952,0.955,1.861,0.768,2.967
	c-0.066,0.39-0.074,0.79-0.138,1.182c-0.733,4.516,0.639,3.996,3.971,4.391c1.757,0.208,2.413-0.424,2.601-2.18
	c0.148-1.391,0.287-2.781,0.444-4.314c4.983,0.527,9.931,1.052,14.873,1.576c0.779-1.391,1.448-2.85,1.993-4.368
	c-3.714-0.396-7.429-0.79-11.144-1.185c0.021-0.193,0.042-0.386,0.062-0.578c3.761,0.398,7.521,0.797,11.281,1.195
	c0.082-0.246,0.16-0.492,0.237-0.741c-4.152-0.438-8.304-0.878-12.456-1.316c0.021-0.192,0.041-0.384,0.061-0.576
	c4.188,0.439,8.378,0.88,12.565,1.319c0.069-0.246,0.136-0.493,0.199-0.742l-13.801-1.463c0.021-0.192,0.04-0.385,0.06-0.578
	c4.627,0.488,9.255,0.977,13.882,1.464c0.498-2.134,0.763-4.358,0.763-6.645c0-0.949-0.047-1.888-0.136-2.813
	c-6.28-0.664-12.562-1.328-18.905-1.999c1.246-3.049,2.42-5.849,3.527-8.674C64.046,36.435,64.493,36.413,65.103,36.479z
	 M63.782,58.865c-2.222,0.571-4.368,0.814-6.521,0.093c-0.568-0.19-1.229-0.464-1.56-0.912c-0.401-0.541-0.777-1.372-0.644-1.958
	c0.118-0.516,0.896-1.082,1.487-1.25C59.254,54.068,62.678,55.947,63.782,58.865z"/>
<path fill="#FFFFFF" d="M51.029,59.611c0-0.001,0.09-1.189,0.089-1.191c-0.128-0.648-1.568-0.41-1.568-0.41s0.013-0.934-0.284-1.772
	c-0.176-0.249-0.391-1.335-0.596-1.573c-0.782-0.438-1.896,0.404-1.896,0.404s-1.041-2.818-1.992-3.285
	c-3.304-1.624-6.875-2.097-10.521-2.239c-1.018-0.04-2.163-0.213-3.007-0.726c-3.105-1.889-6.171-3.856-9.146-5.945
	c-0.315,1.144-0.562,2.314-0.737,3.51c1.605,1.229,3.241,2.486,4.943,3.788c-0.691,0.12-0.952,0.2-1.215,0.205
	c-1.346,0.026-2.69,0.051-4.036,0.076c-0.001,0.061-0.003,0.123-0.003,0.184c0,3.519,0.624,6.892,1.768,10.013
	c0.519-0.769,1.195-1.48,2.052-2.129c2.866-2.172,6.077-2.409,9.177-0.567c3.835,2.278,4.864,5.812,3.896,9.895
	c4.094,0,8.186,0.011,12.276-0.026c0.234-0.003,1.512-0.963,1.574-1.218c0.53-2.15-1.169-4.323-1.169-4.323
	S51.145,60.21,51.029,59.611z"/>
<path fill="#FFFFFF" d="M30.011,57.727c-2.975,0.019-5.489,1.698-6.693,4.167c0.649,1.548,1.429,3.028,2.324,4.428
	c0.807-0.037,1.504-0.07,2.463-0.114c-0.539,0.604-0.96,1.074-1.436,1.607c0.322,0.439,0.656,0.873,1.002,1.294
	c0.538-0.597,1.017-1.129,1.69-1.876c0.061,1.189,0.097,1.917,0.145,2.833c-0.539-0.189-0.981-0.345-1.461-0.513
	c0.975,1.139,2.036,2.203,3.175,3.18c3.596-0.562,6.354-3.709,6.347-7.498C37.559,61.014,34.224,57.699,30.011,57.727z
	 M25.307,64.559c0.21-0.605,0.405-1.168,0.673-1.941c0.727,0.662,1.314,1.199,2.129,1.941
	C27.012,64.559,26.219,64.559,25.307,64.559z M27.113,61.479c0.639-0.337,1.167-0.615,1.892-0.996
	c0.082,0.992,0.144,1.75,0.241,2.942C28.4,62.652,27.839,62.141,27.113,61.479z M34.782,64.275c-1.009,0-1.756,0-2.719,0
	c0.61-0.673,1.119-1.236,1.803-1.992C34.195,63,34.443,63.54,34.782,64.275z M30.605,60.405c0.818,0.312,1.354,0.515,2.084,0.792
	c-0.652,0.71-1.16,1.264-1.859,2.026C30.749,62.211,30.69,61.467,30.605,60.405z M31.09,69.988c0-0.996,0-1.774,0-2.732
	c0.7,0.646,1.244,1.149,1.943,1.795C32.361,69.375,31.815,69.639,31.09,69.988z M34.141,67.848
	c-0.697-0.604-1.279-1.109-2.097-1.818c1.08,0,1.832,0,2.75,0C34.56,66.684,34.387,67.162,34.141,67.848z"/>
</svg>
