<?xml version="1.0" encoding="utf-8"?>
<!-- Generator: Adobe Illustrator 16.0.0, SVG Export Plug-In . SVG Version: 6.00 Build 0)  -->
<!DOCTYPE svg PUBLIC "-//W3C//DTD SVG 1.1//EN" "http://www.w3.org/Graphics/SVG/1.1/DTD/svg11.dtd">
<svg version="1.1" id="Layer_1" xmlns="http://www.w3.org/2000/svg" xmlns:xlink="http://www.w3.org/1999/xlink" x="0px" y="0px"
	 width="100px" height="100px" viewBox="0 0 100 100" enable-background="new 0 0 100 100" xml:space="preserve">
<g>
	<path fill-rule="evenodd" clip-rule="evenodd" d="M53.024,88.943C32,89.076,14.63,71.93,14.377,50.793
		C14.124,29.67,31.449,12.118,52.689,11.98c21.146-0.138,38.64,17.278,38.65,38.477C91.351,71.516,74.133,88.811,53.024,88.943z
		 M84.316,50.483c0.005-17.348-14.094-31.459-31.438-31.464c-17.361-0.005-31.456,14.074-31.464,31.429
		C21.407,67.799,35.5,81.912,52.843,81.92C70.181,81.93,84.311,67.815,84.316,50.483z"/>
</g>
<path fill-rule="evenodd" clip-rule="evenodd" d="M66.521,60.793L54.837,49.11V28.848c0-1.448-1.174-2.622-2.621-2.622
	s-2.621,1.174-2.621,2.622v21.409c0,0.035,0.008,0.068,0.01,0.104c-0.012,0.472,0.119,0.919,0.395,1.284
	c0.186,0.295,0.425,0.551,0.709,0.751l12.105,12.105c0.855,0.855,2.379,0.72,3.402-0.304C67.24,63.174,67.376,61.649,66.521,60.793z
	"/>
</svg>
