<?xml version="1.0" encoding="utf-8"?>
<!-- Generator: Adobe Illustrator 16.0.0, SVG Export Plug-In . SVG Version: 6.00 Build 0)  -->
<!DOCTYPE svg PUBLIC "-//W3C//DTD SVG 1.1//EN" "http://www.w3.org/Graphics/SVG/1.1/DTD/svg11.dtd">
<svg version="1.1" id="Layer_1" xmlns="http://www.w3.org/2000/svg" xmlns:xlink="http://www.w3.org/1999/xlink" x="0px" y="0px"
	 width="100px" height="100px" viewBox="0 0 100 100" enable-background="new 0 0 100 100" xml:space="preserve">
<path fill="#979797" d="M50.425,14.454c-19.882,0-36,16.118-36,36s16.118,36,36,36s36-16.117,36-36S70.307,14.454,50.425,14.454z
	 M50.327,75.452c-4.553-2.696-11.708-0.603-16.365-3.282c-0.707,1.108-1,1.447-0.088-0.045c0.028,0.017,0.06,0.029,0.088,0.045
	c1.197-1.875,3.58-5.959,3.326-7.137c-0.226-1.047-0.413-2.107-0.513-3.172c-0.283-2.969-0.531-5.941-0.75-8.916
	c-0.059-0.814-0.073-1.662,0.077-2.458c0.329-1.739,1.146-3.085,3.042-3.604c1.443-0.396,2.875-0.647,4.352-0.43
	c0.988,0.146,1.519,0.785,1.516,1.789c-0.002,0.452-0.089,0.956-0.301,1.347c-0.892,1.64-1.986,3.103-3.767,3.905
	c-0.134,0.059-0.247,0.361-0.225,0.531c0.056,0.409,0.378,0.723,0.757,0.554c0.535-0.238,1.046-0.591,1.472-0.994
	c0.425-0.401,0.721-0.937,1.099-1.39c0.087-0.104,0.323-0.199,0.433-0.154c0.846,0.352,1.68,0.738,2.523,1.117
	c-0.353,1.063,0.252,2.385,1.087,2.811c0.8,0.408,1.639,0.738,2.44,1.144c0.136,0.068,0.27,0.361,0.234,0.511
	c-0.389,1.684-0.069,2.533,1.418,3.387c0.706,0.406,1.472,0.705,2.249,1.072c-0.138,0.354-0.294,0.8-0.487,1.23
	c-0.496,1.117,0.516,2.451,1.341,3.018c1.055,0.724,2.194,1.097,3.667,0.665C56.768,70.693,53.305,72.799,50.327,75.452z
	 M56.331,48.235c-1.293,2.18-2.614,4.344-3.867,6.546c-0.493,0.867-1.439,1.303-2.336,0.691c-0.479-0.326-1.005-0.589-1.472-0.932
	c-0.537-0.396-0.683-1.175-0.343-1.76c0.691-1.199,1.406-2.385,2.112-3.577c-0.001,0-0.002-0.001-0.005-0.002
	c0.62-1.045,1.237-2.09,1.858-3.135c0.649-1.095,1.244-1.347,2.407-0.833c0.559,0.246,1.08,0.661,1.496,1.112
	C56.805,47.018,56.788,47.464,56.331,48.235z M57.241,49.783c0.995-0.134,2.445,0.761,2.896,1.67
	c0.222,0.445,0.19,0.835-0.066,1.258c-0.721,1.184-1.415,2.38-2.121,3.572c-0.684,1.154-1.359,2.312-2.053,3.463
	c-0.421,0.699-1.009,0.913-1.771,0.613c-0.852-0.335-1.678-0.71-2.166-1.572c-0.247-0.434-0.272-0.821-0.023-1.244
	c1.436-2.418,2.851-4.85,4.323-7.245C56.428,50.023,56.89,49.831,57.241,49.783z M51.781,45.138
	c-0.521,0.929-1.081,1.835-1.622,2.752c0.001,0.001,0.002,0.002,0.004,0.003c-0.521,0.88-1.012,1.779-1.569,2.636
	c-0.998,1.534-2.064,1.296-3.244,0.375c-0.113-0.09-0.049-0.494,0.025-0.722c0.172-0.533,0.471-1.034,0.589-1.575
	c0.21-0.952-0.31-1.632-1.075-2.078c-0.509-0.296-0.529-0.508-0.208-0.971c0.789-1.137,1.582-2.24,2.84-2.93
	c1.034-0.566,2.591-0.476,3.519,0.278c0.101,0.08,0.198,0.16,0.302,0.234C52.328,43.841,52.391,44.057,51.781,45.138z
	 M63.333,58.156c-1.379,2.331-2.754,4.664-4.159,6.981c-0.4,0.662-1.1,0.942-1.811,0.601c-0.723-0.348-1.387-0.867-1.989-1.408
	c-0.47-0.426-0.431-1.007-0.092-1.564c0.696-1.148,1.372-2.31,2.058-3.467c0,0.001,0.001,0.001,0.001,0.002
	c0.674-1.139,1.337-2.283,2.025-3.412c0.504-0.824,1.278-1.051,2.125-0.57c0.616,0.352,1.217,0.768,1.735,1.251
	C63.696,57.008,63.654,57.611,63.333,58.156z M79.634,61.749c-0.104,0.219-0.213,0.434-0.322,0.649l-8.178,1.709l2.521,6.156
	c-1.252,1.264-2.619,2.41-4.073,3.441l-3.729-8.494l-2.044-4.993l4.762-0.995l-6.288-5.414l2.93-4.479l4.372-6.682l-6,0.447
	l-5.38,0.402l0.583-5.364l0.314-2.903l-2.738,1.663l-4.575,2.778L48.436,35.5l-2.513-3.123l-0.94,3.851l-1.281,5.241l-4.92-2.211
	l-5.424-2.437l1.622,6.879l1.228,5.208l-7.276,2.766l-7.644,1.597c-0.212-1.384-0.324-2.8-0.347-4.237l9.036-3.433l-3.471-14.719
	l-0.78-3.307l2.47,1.11l11.865,5.332l3.261-13.342l9.688,12.048l12.527-7.608l-1.369,12.618l15.742-1.176L69.268,52.822
	L79.634,61.749z"/>
<path fill="#FFFFFF" d="M61.491,55.318c-0.847-0.48-1.621-0.254-2.125,0.57c-0.688,1.129-1.352,2.273-2.025,3.412
	c0-0.001-0.001-0.001-0.001-0.002c-0.686,1.157-1.361,2.318-2.058,3.467c-0.339,0.558-0.378,1.139,0.092,1.564
	c0.603,0.541,1.267,1.061,1.989,1.408c0.711,0.342,1.41,0.062,1.811-0.601c1.405-2.317,2.78-4.65,4.159-6.981
	c0.321-0.545,0.363-1.148-0.106-1.587C62.708,56.086,62.107,55.67,61.491,55.318z"/>
<path fill="#FFFFFF" d="M54.687,45.235c-1.163-0.515-1.758-0.263-2.407,0.833c-0.621,1.045-1.238,2.09-1.858,3.135
	c0.003,0.001,0.004,0.002,0.005,0.002c-0.706,1.192-1.421,2.378-2.112,3.577c-0.34,0.585-0.194,1.364,0.343,1.76
	c0.467,0.343,0.992,0.605,1.472,0.932c0.896,0.611,1.843,0.176,2.336-0.691c1.253-2.202,2.574-4.366,3.867-6.546
	c0.457-0.771,0.474-1.217-0.148-1.888C55.767,45.896,55.245,45.481,54.687,45.235z"/>
<path fill="#FFFFFF" d="M51.936,57.543c-0.249,0.423-0.224,0.811,0.023,1.244c0.488,0.862,1.314,1.237,2.166,1.572
	c0.763,0.3,1.351,0.086,1.771-0.613c0.693-1.15,1.369-2.309,2.053-3.463c0.706-1.192,1.4-2.389,2.121-3.572
	c0.257-0.423,0.288-0.812,0.066-1.258c-0.45-0.909-1.9-1.804-2.896-1.67c-0.352,0.047-0.813,0.24-0.982,0.515
	C54.786,52.693,53.371,55.125,51.936,57.543z"/>
<path fill="#FFFFFF" d="M51.341,43.143c-0.104-0.074-0.201-0.155-0.302-0.234c-0.928-0.754-2.484-0.844-3.519-0.278
	c-1.258,0.689-2.051,1.793-2.84,2.93c-0.321,0.463-0.301,0.675,0.208,0.971c0.766,0.446,1.285,1.126,1.075,2.078
	c-0.118,0.541-0.417,1.042-0.589,1.575c-0.074,0.228-0.139,0.632-0.025,0.722c1.18,0.921,2.246,1.158,3.244-0.375
	c0.558-0.857,1.049-1.756,1.569-2.636c-0.002-0.001-0.003-0.002-0.004-0.003c0.541-0.917,1.101-1.824,1.622-2.752
	C52.391,44.057,52.328,43.841,51.341,43.143z"/>
<path fill="#FFFFFF" d="M55.285,66.33c-0.825-0.566-1.837-1.9-1.341-3.018c0.193-0.431,0.35-0.877,0.487-1.23
	c-0.777-0.367-1.543-0.666-2.249-1.072c-1.487-0.854-1.807-1.703-1.418-3.387c0.035-0.149-0.099-0.442-0.234-0.511
	c-0.802-0.405-1.641-0.735-2.44-1.144c-0.835-0.426-1.439-1.747-1.087-2.811c-0.844-0.379-1.678-0.766-2.523-1.117
	c-0.109-0.045-0.346,0.051-0.433,0.154c-0.378,0.453-0.674,0.988-1.099,1.39c-0.426,0.403-0.937,0.756-1.472,0.994
	c-0.379,0.169-0.701-0.145-0.757-0.554c-0.022-0.17,0.091-0.473,0.225-0.531c1.78-0.802,2.875-2.265,3.767-3.905
	c0.212-0.391,0.299-0.895,0.301-1.347c0.003-1.004-0.527-1.644-1.516-1.789c-1.477-0.218-2.908,0.034-4.352,0.43
	c-1.896,0.519-2.713,1.864-3.042,3.604c-0.15,0.796-0.136,1.644-0.077,2.458c0.219,2.975,0.467,5.947,0.75,8.916
	c0.1,1.064,0.287,2.125,0.513,3.172c0.254,1.178-2.129,5.262-3.326,7.137c4.657,2.68,11.812,0.586,16.365,3.282
	c2.978-2.653,6.44-4.759,8.625-8.457C57.479,67.427,56.34,67.054,55.285,66.33z"/>
<path fill="#FFFFFF" d="M33.962,72.17c-0.028-0.016-0.06-0.028-0.088-0.045C32.962,73.617,33.255,73.278,33.962,72.17z"/>
<path fill="#FFFFFF" d="M64.167,37.732l1.369-12.618l-12.527,7.608l-9.688-12.048l-3.261,13.342l-11.865-5.332l-2.47-1.11
	l0.78,3.307L29.977,45.6l-9.036,3.433c0.022,1.438,0.135,2.854,0.347,4.237l7.644-1.597l7.276-2.766L34.979,43.7l-1.622-6.879
	l5.424,2.437l4.92,2.211l1.281-5.241l0.94-3.851l2.513,3.123l3.353,4.171l4.575-2.778l2.738-1.663l-0.314,2.903l-0.583,5.364
	l5.38-0.402l6-0.447l-4.372,6.682l-2.93,4.479l6.288,5.414l-4.762,0.995l2.044,4.993l3.729,8.494
	c1.454-1.031,2.821-2.178,4.073-3.441l-2.521-6.156l8.178-1.709c0.109-0.216,0.219-0.431,0.322-0.649l-10.366-8.927l10.642-16.266
	L64.167,37.732z"/>
</svg>
