<?xml version="1.0" encoding="utf-8"?>
<!-- Generator: Adobe Illustrator 16.0.0, SVG Export Plug-In . SVG Version: 6.00 Build 0)  -->
<!DOCTYPE svg PUBLIC "-//W3C//DTD SVG 1.1//EN" "http://www.w3.org/Graphics/SVG/1.1/DTD/svg11.dtd">
<svg version="1.1" id="Layer_1" xmlns="http://www.w3.org/2000/svg" xmlns:xlink="http://www.w3.org/1999/xlink" x="0px" y="0px"
	 width="100px" height="100px" viewBox="0 0 100 100" enable-background="new 0 0 100 100" xml:space="preserve">
<path fill="#979797" d="M50.461,14.458c-19.882,0-36,16.118-36,36s16.118,36,36,36c19.882,0,36-16.118,36-36
	S70.344,14.458,50.461,14.458z M33.911,72.13c0.028,0.017,0.06,0.028,0.088,0.045c1.197-1.876,3.58-5.96,3.326-7.138
	c-0.226-1.047-0.413-2.105-0.513-3.17c-0.283-2.969-0.531-5.941-0.75-8.916c-0.059-0.815-0.073-1.662,0.077-2.459
	c0.329-1.739,1.146-3.085,3.042-3.604c1.443-0.396,2.875-0.647,4.352-0.43c0.988,0.146,1.519,0.785,1.516,1.789
	c-0.002,0.452-0.089,0.956-0.301,1.347c-0.892,1.64-1.986,3.103-3.767,3.904c-0.134,0.061-0.247,0.361-0.225,0.531
	c0.056,0.41,0.378,0.723,0.757,0.555c0.535-0.238,1.046-0.591,1.472-0.994c0.425-0.402,0.721-0.936,1.099-1.391
	c0.087-0.104,0.323-0.199,0.433-0.153c0.846,0.351,1.68,0.737,2.523,1.117c-0.353,1.063,0.252,2.384,1.087,2.81
	c0.8,0.408,1.639,0.739,2.44,1.145c0.136,0.068,0.27,0.361,0.234,0.512c-0.389,1.682-0.069,2.531,1.417,3.387
	c0.707,0.404,1.473,0.704,2.25,1.071c-0.139,0.354-0.295,0.8-0.488,1.231c-0.496,1.117,0.516,2.451,1.342,3.016
	c1.055,0.725,2.193,1.098,3.666,0.666c-2.184,3.699-5.646,5.804-8.625,8.457c-4.553-2.695-11.708-0.603-16.365-3.282 M56.367,48.24
	c-1.293,2.18-2.613,4.344-3.867,6.546c-0.492,0.868-1.439,1.302-2.335,0.692c-0.479-0.327-1.005-0.59-1.472-0.933
	c-0.537-0.396-0.683-1.175-0.343-1.76c0.691-1.2,1.406-2.385,2.112-3.577c-0.001,0-0.002-0.001-0.005-0.002
	c0.621-1.045,1.238-2.09,1.859-3.135c0.648-1.095,1.244-1.347,2.406-0.833c0.559,0.246,1.08,0.661,1.496,1.112
	C56.842,47.022,56.824,47.469,56.367,48.24z M57.277,49.788c0.996-0.134,2.445,0.761,2.896,1.67
	c0.221,0.444,0.189,0.835-0.066,1.258c-0.721,1.183-1.416,2.38-2.121,3.571c-0.684,1.155-1.359,2.313-2.053,3.463
	c-0.422,0.7-1.01,0.914-1.771,0.613c-0.852-0.334-1.678-0.709-2.166-1.57c-0.248-0.436-0.273-0.822-0.023-1.246
	c1.436-2.418,2.85-4.848,4.322-7.244C56.465,50.028,56.926,49.835,57.277,49.788z M51.818,45.143
	c-0.521,0.929-1.082,1.835-1.623,2.752c0.001,0.001,0.002,0.002,0.004,0.003c-0.521,0.88-1.012,1.779-1.569,2.636
	c-0.998,1.534-2.064,1.295-3.244,0.375c-0.113-0.09-0.049-0.494,0.025-0.722c0.172-0.533,0.471-1.034,0.589-1.575
	c0.21-0.952-0.31-1.632-1.075-2.078c-0.509-0.296-0.529-0.508-0.208-0.971c0.789-1.137,1.582-2.24,2.84-2.93
	c1.034-0.566,2.591-0.476,3.519,0.278c0.1,0.08,0.197,0.16,0.301,0.234C52.365,43.846,52.428,44.062,51.818,45.143z M63.369,58.16
	c-1.379,2.332-2.754,4.666-4.158,6.982c-0.4,0.662-1.1,0.943-1.811,0.602c-0.723-0.349-1.387-0.867-1.99-1.409
	c-0.469-0.426-0.43-1.007-0.092-1.563c0.697-1.149,1.373-2.311,2.059-3.467c0,0,0,0,0,0.001c0.674-1.138,1.338-2.283,2.025-3.411
	c0.504-0.824,1.279-1.053,2.125-0.57c0.617,0.352,1.217,0.767,1.736,1.25C63.732,57.014,63.691,57.615,63.369,58.16z M79.67,61.754
	c-0.104,0.219-0.213,0.434-0.322,0.649l-8.178,1.709l2.521,6.157c-1.252,1.263-2.619,2.408-4.072,3.44l-3.73-8.495l-2.043-4.992
	l4.762-0.995l-6.289-5.415l2.93-4.478l4.373-6.682l-6,0.447l-5.381,0.402l0.584-5.364l0.314-2.903L56.4,36.897l-4.576,2.778
	l-3.352-4.171l-2.513-3.123l-0.94,3.851l-1.281,5.241l-4.92-2.211l-5.424-2.437l1.622,6.879l1.228,5.208l-7.276,2.765l-7.644,1.598
	c-0.212-1.384-0.324-2.8-0.347-4.237l9.036-3.433l-3.471-14.719l-0.78-3.307l2.47,1.11l11.865,5.332l3.261-13.342l9.687,12.048
	l12.527-7.608l-1.369,12.618l15.742-1.176L69.305,52.828L79.67,61.754z"/>
</svg>
