<?xml version="1.0" encoding="utf-8"?>
<!-- Generator: Adobe Illustrator 16.0.0, SVG Export Plug-In . SVG Version: 6.00 Build 0)  -->
<!DOCTYPE svg PUBLIC "-//W3C//DTD SVG 1.1//EN" "http://www.w3.org/Graphics/SVG/1.1/DTD/svg11.dtd">
<svg version="1.1" id="Layer_1" xmlns="http://www.w3.org/2000/svg" xmlns:xlink="http://www.w3.org/1999/xlink" x="0px" y="0px"
	 width="100px" height="100px" viewBox="0 0 100 100" enable-background="new 0 0 100 100" xml:space="preserve">
<path fill="#ED1F24" d="M50.461,85.967c19.882,0,36-16.117,36-36c0-19.882-16.117-36-36-36c-19.882,0-36,16.118-36,36
	C14.461,69.85,30.58,85.967,50.461,85.967z M31.123,56.064c0.67,0.842,0.792,1.939,2.056,2.707c0.029-0.465,0.113-0.739,0.047-0.987
	c-0.22-0.81-0.459-1.618-0.761-2.411c-1.521-4.016-1.109-7.878,1.441-11.576c0.179-0.261,0.451-0.481,0.754-0.796
	c0.715,1.58,0.659,3.274,2.243,4.564c0.667-2.228,1.252-4.299,1.911-6.357c0.667-2.081,1.726-4.038,3.366-5.769
	c0.411-0.434,0.998-0.767,1.504-1.146c0.313,1.707-0.062,3.314,0.969,4.879c0.136-0.231,0.236-0.355,0.284-0.491
	c0.927-2.551,2.481-4.844,4.547-6.941c1.555-1.579,2.454-3.396,2.95-5.342c0.094-0.366,0.199-0.731,0.299-1.098
	c0.102-0.02,0.201-0.04,0.305-0.06c0.318,0.48,0.781,0.936,0.924,1.446c0.301,1.068,0.518,2.161,0.615,3.252
	c0.146,1.633,0.111,3.277,0.258,4.91c0.055,0.621,0.395,1.226,0.604,1.837c0.107-0.003,0.215-0.006,0.322-0.009
	c0.252-0.354,0.465-0.729,0.76-1.057c0.791-0.87,1.568-1.752,2.455-2.559c0.303-0.276,0.912-0.346,1.551-0.569
	c-1.691,4.745-0.52,9.069,1.332,13.53c1.354-1.635,1.908-3.587,4.568-4.419c-0.518,4.021,0.088,7.799,0.982,11.573
	c1.062-0.723,2.035-1.384,2.986-2.031c-0.035,1.539-0.32,2.923-0.043,4.235c0.77,3.651,0.41,7.16-1.477,10.561
	c-1.584,2.854-4.1,4.898-8.105,5.568c-1.721,0.287-3.449,0.254-5.283-0.25c2.834-1.084,5.064-2.525,6.453-4.654
	c1.338-2.05-0.113-7.867-0.391-8.912c-0.273-1.025-1.586-2.959-2.396-3.645c0.625,2.303,0.588,5.595-0.127,7.103
	c-0.623,1.714-2.584,2.934-3.811,3.09c3.32-4.07,1.076-7.038-0.562-10.438c-0.846,2.088-1.021,4.46-2.961,6.023
	c-3.341-3.722-2.75-7.856-2.58-11.96c-2.641,3.369-4.935,8.125-2.704,12.305c-2.421-0.914-4.122-2.793-4.397-5.404
	c-2.224,2.122-2.519,5.158-2.521,5.227c-0.265,4.293,2.067,6.096,5.614,8.043c1.429,0.785,2.946,1.471,4.424,2.204
	c0.354,0.177,0.699,0.366,1.093,0.571c-3.316,1.706-11.208,1-15.9-2.718C30.208,64.521,29.193,59.314,31.123,56.064z"/>
</svg>
