<svg id="91a639fa-7402-48a7-89f3-cd6de3acc09a" data-name="Calque 1" xmlns="http://www.w3.org/2000/svg" xmlns:xlink="http://www.w3.org/1999/xlink" viewBox="0 0 17.48 17.48"><defs><style>.\39 ea5f366-212e-4354-a1b6-fb8eade92540{fill:none;}.b3bbeb23-f145-49b7-b6ae-984b8fd68061{clip-path:url(#239943dd-4fa5-4975-8b3f-039cdbf33da7);}.\31 0ea89eb-3849-4fd4-a0d5-524c260f3737{fill:#fff;}</style><clipPath id="239943dd-4fa5-4975-8b3f-039cdbf33da7" transform="translate(0 -0.01)"><rect class="9ea5f366-212e-4354-a1b6-fb8eade92540" y="0.01" width="18" height="18"/></clipPath></defs><title>icon-phone</title><g class="b3bbeb23-f145-49b7-b6ae-984b8fd68061"><path class="10ea89eb-3849-4fd4-a0d5-524c260f3737" d="M10.33,13.07A14.28,14.28,0,0,1,7,10.54,14.18,14.18,0,0,1,4.43,7.16l0.9-2.42L2.29,0l-1,1h0l0,0c-2.53,2.52-1.17,7.7,3.16,12s9.5,5.69,12,3.16l0,0,1-1-4.73-3Zm0,0" transform="translate(0 -0.01)"/></g><path class="10ea89eb-3849-4fd4-a0d5-524c260f3737" d="M16.08,9.11h1.4A9.11,9.11,0,0,0,8.38,0v1.4a7.71,7.71,0,0,1,7.7,7.7h0Zm0,0" transform="translate(0 -0.01)"/><path class="10ea89eb-3849-4fd4-a0d5-524c260f3737" d="M13.28,9.11h1.4a6.31,6.31,0,0,0-6.3-6.3v1.4a4.91,4.91,0,0,1,4.9,4.9h0Zm0,0" transform="translate(0 -0.01)"/><path class="10ea89eb-3849-4fd4-a0d5-524c260f3737" d="M10.48,9.11h1.4a3.5,3.5,0,0,0-3.5-3.5V7a2.1,2.1,0,0,1,2.1,2.1h0Zm0,0" transform="translate(0 -0.01)"/></svg>