<svg id="149e35e3-40e3-43cb-8057-8010dfd72ab7" data-name="Layer 1" xmlns="http://www.w3.org/2000/svg" viewBox="0 0 40.54 46.45"><defs><style>.\31 900b2ba-3ccf-435e-8255-882e419402a9{fill:#2e2e2d;}</style></defs><title>icon-</title><path class="1900b2ba-3ccf-435e-8255-882e419402a9" d="M4.53,42.85c4.69,3.72,12.58,4.42,15.9,2.72L19.33,45c-1.48-.73-3-1.42-4.42-2.2C11.36,40.85,9,39,9.3,34.75a9.06,9.06,0,0,1,2.52-5.23,6.43,6.43,0,0,0,4.4,5.4c-2.23-4.18.06-8.94,2.7-12.3-0.17,4.1-.76,8.24,2.58,12,1.94-1.56,2.12-3.94,3-6C26.1,32,28.34,34.93,25,39a5.31,5.31,0,0,0,3.81-3.09c0.71-1.51.75-4.8,0.13-7.1a10.07,10.07,0,0,1,2.4,3.64c0.28,1,1.73,6.86.39,8.91A12.74,12.74,0,0,1,25.29,46a12,12,0,0,0,5.28.25,10.73,10.73,0,0,0,8.11-5.57,14.72,14.72,0,0,0,1.48-10.56,19.42,19.42,0,0,1,0-4.24l-3,2a31.8,31.8,0,0,1-1-11.57c-2.66.83-3.21,2.78-4.57,4.42-1.85-4.46-3-8.79-1.33-13.53a5.41,5.41,0,0,0-1.55.57c-0.89.81-1.66,1.69-2.45,2.56a11.08,11.08,0,0,0-.76,1.06H25.25a8.33,8.33,0,0,1-.6-1.84C24.5,8,24.53,6.33,24.38,4.7a18,18,0,0,0-.62-3.25A6,6,0,0,0,22.84,0l-0.3.06c-0.1.37-.21,0.73-0.3,1.1a11.44,11.44,0,0,1-3,5.34,19.32,19.32,0,0,0-4.55,6.94,3.72,3.72,0,0,1-.28.49c-1-1.57-.66-3.17-1-4.88A11.82,11.82,0,0,0,12,10.2,14.8,14.8,0,0,0,8.62,16C8,18,7.38,20.1,6.71,22.32c-1.58-1.29-1.53-3-2.24-4.56a7.56,7.56,0,0,0-.75.8A11.88,11.88,0,0,0,2.27,30.13c0.3,0.79.54,1.6,0.76,2.41a3.73,3.73,0,0,1,0,1C1.72,32.76,1.6,31.67.93,30.82-1,34.07,0,39.28,4.53,42.85Z"/></svg>