<svg id="993205d0-0f03-4fe4-9618-26c001dd0e96" data-name="Layer 1" xmlns="http://www.w3.org/2000/svg" viewBox="0 0 58.14 39.9"><defs><style>.d9cc2410-6778-456f-9452-4e433af8bcec{fill:#2e2e2d;}</style></defs><title>icon-</title><polygon class="d9cc2410-6778-456f-9452-4e433af8bcec" points="11.78 15.27 18.54 13.21 15.1 6.58 23.37 8.05 25.77 0.46 29.72 6.11 35.74 0 37.2 8.4 34 8.33 33.7 6.18 31.4 8.51 29.35 10.6 27.67 8.2 26.76 6.89 26.23 8.55 25.35 11.33 22.49 10.82 20.35 10.44 21.34 12.35 22.69 14.95 19.89 15.81 18.55 16.32 10.91 15.53 11.78 15.27"/><path class="d9cc2410-6778-456f-9452-4e433af8bcec" d="M10.16,40A29.22,29.22,0,0,1,7,36.83l1.46,0.51c0-.92-0.08-1.64-0.14-2.83L6.61,36.38c-0.35-.42-0.68-0.85-1-1.29L7,33.48l-2.46.11a29.06,29.06,0,0,1-2.32-4.43A7.44,7.44,0,0,1,9,25a7.45,7.45,0,0,1,7.56,7.51A7.56,7.56,0,0,1,10.16,40Z"/><path class="d9cc2410-6778-456f-9452-4e433af8bcec" d="M30.74,33.88a4.39,4.39,0,0,1-1.57,1.22c-4.09,0-8.18,0-12.28,0,1-4.08-.06-7.62-3.9-9.89a7.76,7.76,0,0,0-9.18.57,9,9,0,0,0-2.05,2.13A29.06,29.06,0,0,1,0,17.91c0-.06,0-0.12,0-0.18l4-.08a11.39,11.39,0,0,0,1.21-.21L0.31,13.66A29,29,0,0,1,1,10.15c3,2.09,6,4.06,9.15,5.94a6.46,6.46,0,0,0,3,.73,25.67,25.67,0,0,1,10.52,2.24c1,0.47,2,3.29,2,3.29s1.11-.84,1.9-0.4c0.21,0.24.42,1.32,0.6,1.57a5.84,5.84,0,0,1,.28,1.77s1.44-.24,1.57.41L30,26.89a11.74,11.74,0,0,1-.4,2.67S31.27,31.73,30.74,33.88Z"/><path class="d9cc2410-6778-456f-9452-4e433af8bcec" d="M58.08,15.1q0.13,1.39.14,2.81a29.21,29.21,0,0,1-.76,6.64L43.58,23.09l-0.06.58,13.8,1.46q-0.1.37-.2,0.74L44.55,24.56l-0.06.58,12.46,1.32c-0.08.25-.16,0.5-0.24,0.74L45.43,26l-0.06.58,11.14,1.19a28.85,28.85,0,0,1-2,4.37L39.65,30.55c-0.16,1.53-.3,2.92-0.44,4.31C39,36.62,38.36,37.25,36.6,37c-3.33-.39-4.7.13-4-4.39,0.06-.39.07-0.79,0.14-1.18a3,3,0,0,0-.77-3c-0.66-.68-0.42-1.34-0.67-2.72-0.13-.71-0.93-2-0.94-2.75s0.92-1.52,1-2.22c0.22-1.34-.21-2.49.51-3.27s1.31-1.52,2-2.31c-2.19-.6-2.12-0.6-1.92-2.92,0.31-3.83.4-3.57,3.87-3,1.35,0.21,2.07-.11,2.49-1.5,0.51-1.68,1.28-3.28,1.94-4.91a3,3,0,0,1,3.23-2l9.92,1a29.23,29.23,0,0,1,1.74,3L44,3.76a1,1,0,0,0-1.34.67c-1.11,2.83-2.28,5.63-3.53,8.67Z"/></svg>