<svg id="2a399997-c7e4-495e-bc9f-099962b25db0" data-name="Calque 1" xmlns="http://www.w3.org/2000/svg" viewBox="0 0 57.56 78.17"><defs><style>.\32 05662d2-eeef-47da-a4ba-91589ccfa289{fill:#fff;}</style></defs><title>icon-geolocation</title><path class="205662d2-eeef-47da-a4ba-91589ccfa289" d="M28.78,0A28.81,28.81,0,0,0,0,28.78,28.1,28.1,0,0,0,2.52,40.53c7.2,15.74,21,32.37,25.05,37.09a1.6,1.6,0,0,0,2.43,0C34,72.89,47.84,56.27,55,40.53a28,28,0,0,0,2.52-11.75A28.82,28.82,0,0,0,28.78,0h0Zm0,43.73a14.95,14.95,0,1,1,15-14.95,15,15,0,0,1-15,14.95h0Zm0,0"/></svg>