<svg id="70c71244-d15e-4583-a301-59e323441542" data-name="Layer 1" xmlns="http://www.w3.org/2000/svg" viewBox="0 0 58.97 54.78"><defs><style>.\37 dfc77e8-88af-4a78-a800-ddb8ee1f7f88{fill:#2e2e2d;}</style></defs><title>icon-</title><path class="7dfc77e8-88af-4a78-a800-ddb8ee1f7f88" d="M40.55,34.64a1.45,1.45,0,0,0-2.12.57c-0.69,1.13-1.35,2.27-2,3.41h0c-0.69,1.16-1.36,2.32-2.06,3.47a1.16,1.16,0,0,0,.09,1.56,8.76,8.76,0,0,0,2,1.41,1.35,1.35,0,0,0,1.81-.6c1.41-2.32,2.78-4.65,4.16-7a1.21,1.21,0,0,0-.11-1.59A9.33,9.33,0,0,0,40.55,34.64Z"/><path class="7dfc77e8-88af-4a78-a800-ddb8ee1f7f88" d="M33.75,24.56c-1.16-.51-1.76-0.26-2.41.83l-1.86,3.13h0c-0.71,1.19-1.42,2.38-2.11,3.58a1.36,1.36,0,0,0,.34,1.76c0.47,0.34,1,.61,1.47.93a1.58,1.58,0,0,0,2.34-.69c1.25-2.2,2.57-4.37,3.87-6.55a1.31,1.31,0,0,0-.15-1.89A4.69,4.69,0,0,0,33.75,24.56Z"/><path class="7dfc77e8-88af-4a78-a800-ddb8ee1f7f88" d="M31,36.87a1.14,1.14,0,0,0,0,1.25,3.85,3.85,0,0,0,2.17,1.57A1.31,1.31,0,0,0,35,39.07c0.69-1.15,1.37-2.31,2.05-3.46s1.4-2.39,2.12-3.57a1.19,1.19,0,0,0,.07-1.26,3.39,3.39,0,0,0-2.9-1.67,1.48,1.48,0,0,0-1,.52C33.85,32,32.43,34.45,31,36.87Z"/><path class="7dfc77e8-88af-4a78-a800-ddb8ee1f7f88" d="M30.4,22.47l-0.3-.23A3.38,3.38,0,0,0,26.58,22a8.68,8.68,0,0,0-2.84,2.93c-0.32.46-.3,0.68,0.21,1A1.87,1.87,0,0,1,25,27.93c-0.12.54-.42,1-0.59,1.57a1,1,0,0,0,0,.72c1.18,0.92,2.25,1.16,3.24-.38,0.56-.86,1-1.76,1.57-2.64h0c0.54-.92,1.1-1.82,1.62-2.75C31.45,23.38,31.39,23.17,30.4,22.47Z"/><path class="7dfc77e8-88af-4a78-a800-ddb8ee1f7f88" d="M34.34,45.66c-0.83-.57-1.84-1.9-1.34-3,0.19-.43.35-0.88,0.49-1.23-0.78-.37-1.54-0.67-2.25-1.07-1.49-.85-1.81-1.7-1.42-3.39a0.59,0.59,0,0,0-.23-0.51c-0.8-.41-1.64-0.74-2.44-1.14a2.51,2.51,0,0,1-1.09-2.81c-0.84-.38-1.68-0.77-2.52-1.12a0.5,0.5,0,0,0-.43.15A15.16,15.16,0,0,1,22,32.91a5.35,5.35,0,0,1-1.47,1,0.57,0.57,0,0,1-.76-0.55A0.63,0.63,0,0,1,20,32.82a8.26,8.26,0,0,0,3.77-3.9,3,3,0,0,0,.3-1.35,1.64,1.64,0,0,0-1.52-1.79,10.5,10.5,0,0,0-4.35.43,4.11,4.11,0,0,0-3,3.6,9.67,9.67,0,0,0-.08,2.46q0.33,4.46.75,8.92a27.07,27.07,0,0,0,.51,3.17c0.25,1.18-2.13,5.26-3.33,7.14,4.66,2.68,11.81.59,16.37,3.28,3-2.65,6.44-4.76,8.62-8.46A4,4,0,0,1,34.34,45.66Z"/><path class="7dfc77e8-88af-4a78-a800-ddb8ee1f7f88" d="M13,51.5l-0.09,0C12,52.94,12.31,52.6,13,51.5Z"/><path class="7dfc77e8-88af-4a78-a800-ddb8ee1f7f88" d="M43.23,17.06L44.6,4.44,32.07,12,22.38,0,19.12,13.34,7.25,8,4.79,6.9l0.78,3.31L9,24.93,0,28.36A31.23,31.23,0,0,0,.35,32.6L8,31l7.28-2.77L14,23l-1.62-6.88,5.42,2.44,4.92,2.21L24,15.55,25,11.7l2.51,3.12L30.85,19l4.58-2.78,2.74-1.66-0.31,2.9-0.58,5.36,5.38-.4,6-.45-4.37,6.68-2.93,4.48,6.29,5.41-4.76,1,2,5L48.64,53a30.92,30.92,0,0,0,4.07-3.44l-2.52-6.16,8.18-1.71c0.11-.22.22-0.43,0.32-0.65L48.33,32.15,59,15.88Z"/></svg>