<?xml version="1.0" encoding="utf-8"?>
<!-- Generator: Adobe Illustrator 16.0.0, SVG Export Plug-In . SVG Version: 6.00 Build 0)  -->
<!DOCTYPE svg PUBLIC "-//W3C//DTD SVG 1.1//EN" "http://www.w3.org/Graphics/SVG/1.1/DTD/svg11.dtd">
<svg version="1.1" id="Layer_1" xmlns="http://www.w3.org/2000/svg" xmlns:xlink="http://www.w3.org/1999/xlink" x="0px" y="0px"
	 width="100px" height="100px" viewBox="0 0 100 100" enable-background="new 0 0 100 100" xml:space="preserve">
<path fill="#1CBBB4" d="M50.461,13.963c-19.882,0-36,16.118-36,36c0,19.883,16.118,36,36,36c19.882,0,36-16.117,36-36
	C86.461,30.081,70.344,13.963,50.461,13.963z M71.771,47.773c-0.514,3.633-2.162,6.87-4.721,9.5
	c-3.08,3.164-16.589,15.398-16.589,15.398s-13.51-12.234-16.59-15.398c-2.559-2.631-4.207-5.867-4.72-9.5
	c-0.461-3.264,0.953-8.051,3.365-10.298c2.272-2.118,8.461-3.595,11.439-2.712c6.057,1.794,6.057,6.953,6.505,6.28
	c0.448,0.673,0.449-4.486,6.505-6.28c2.979-0.883,9.166,0.594,11.439,2.712C70.818,39.722,72.232,44.509,71.771,47.773z"/>
</svg>
