<svg id="872fa96c-b1b8-41e1-83ed-f9c06160b98a" data-name="Calque 1" xmlns="http://www.w3.org/2000/svg" viewBox="0 0 25.6 25.6"><defs><style>.fdbae0e3-93d7-4c18-9b58-7cb105c52a40{fill:#fff;fill-rule:evenodd;}</style></defs><title>icon-edit</title><path class="fdbae0e3-93d7-4c18-9b58-7cb105c52a40" d="M22.8,12a1.2,1.2,0,0,0-1.2,1.2v10H2.4V4h10a1.2,1.2,0,1,0,0-2.4H1.6A1.6,1.6,0,0,0,0,3.2V24a1.6,1.6,0,0,0,1.6,1.6H22.4A1.6,1.6,0,0,0,24,24V13.2A1.2,1.2,0,0,0,22.8,12h0Zm2.52-8.28L21.88,0.28A1,1,0,0,0,21.2,0a0.94,0.94,0,0,0-.68.28L7.2,13.6v4.8H12L25.32,5.08A1,1,0,0,0,25.6,4.4a1,1,0,0,0-.28-0.67h0ZM11.2,16H9.6V14.4L21.2,2.8l1.6,1.6Zm0,0"/></svg>