<?xml version="1.0" encoding="utf-8"?>
<!-- Generator: Adobe Illustrator 16.0.0, SVG Export Plug-In . SVG Version: 6.00 Build 0)  -->
<!DOCTYPE svg PUBLIC "-//W3C//DTD SVG 1.1//EN" "http://www.w3.org/Graphics/SVG/1.1/DTD/svg11.dtd">
<svg version="1.1" id="Layer_1" xmlns="http://www.w3.org/2000/svg" xmlns:xlink="http://www.w3.org/1999/xlink" x="0px" y="0px"
	 width="100px" height="100px" viewBox="0 0 100 100" enable-background="new 0 0 100 100" xml:space="preserve">
<path fill="#01A64F" d="M50.461,14.454c-19.882,0-36,16.118-36,36c0,19.882,16.118,35.999,36,35.999c19.882,0,36-16.117,36-35.999
	C86.461,30.572,70.344,14.454,50.461,14.454z M32.872,47.994l6.76-2.06l-3.436-6.623l8.269,1.465l2.404-7.589l3.951,5.65l6.02-6.108
	l1.459,8.401l-3.207-0.07l-0.299-2.148L52.5,41.239l-2.058,2.088l-1.679-2.403l-0.909-1.3l-0.527,1.66l-0.878,2.771l-2.861-0.507
	l-2.145-0.379l0.991,1.912l1.349,2.602l-2.802,0.854l-1.34,0.511l-7.639-0.787L32.872,47.994z M31.256,72.737
	c-1.139-0.978-2.2-2.041-3.175-3.181c0.479,0.169,0.922,0.324,1.461,0.514c-0.048-0.916-0.084-1.644-0.145-2.834
	c-0.674,0.748-1.152,1.279-1.69,1.877c-0.346-0.422-0.68-0.854-1.002-1.294c0.476-0.532,0.896-1.004,1.436-1.606
	c-0.959,0.043-1.656,0.076-2.463,0.113c-0.896-1.398-1.675-2.879-2.324-4.428c1.204-2.469,3.719-4.148,6.693-4.168
	c4.213-0.026,7.548,3.287,7.556,7.51C37.611,69.027,34.852,72.174,31.256,72.737z M51.838,66.607
	c-0.062,0.254-1.339,1.215-1.574,1.217c-4.091,0.037-8.183,0.027-12.276,0.027c0.969-4.083-0.061-7.615-3.896-9.895
	c-3.1-1.842-6.311-1.604-9.177,0.566c-0.856,0.649-1.533,1.361-2.052,2.131c-1.144-3.123-1.768-6.495-1.768-10.014
	c0-0.061,0.002-0.123,0.003-0.184c1.346-0.025,2.69-0.05,4.036-0.076c0.263-0.005,0.523-0.085,1.215-0.205
	c-1.702-1.302-3.338-2.559-4.943-3.788c0.175-1.195,0.422-2.366,0.737-3.51c2.976,2.088,6.041,4.056,9.146,5.945
	c0.844,0.513,1.989,0.687,3.007,0.726c3.646,0.143,7.218,0.616,10.521,2.238c0.951,0.467,1.992,3.287,1.992,3.287
	s1.113-0.843,1.896-0.404c0.205,0.237,0.42,1.324,0.596,1.572c0.297,0.838,0.284,1.773,0.284,1.773s1.441-0.239,1.568,0.41
	c0.002,0.001-0.088,1.189-0.088,1.191c0.115,0.598-0.397,2.667-0.397,2.667S52.369,64.457,51.838,66.607z M79.182,47.827
	c0.088,0.926,0.135,1.864,0.135,2.813c0,2.286-0.264,4.511-0.762,6.645c-4.627-0.487-9.256-0.976-13.883-1.463
	c-0.02,0.192-0.039,0.385-0.059,0.577l13.801,1.464c-0.064,0.248-0.131,0.495-0.199,0.74c-4.188-0.439-8.377-0.879-12.566-1.318
	c-0.02,0.191-0.039,0.384-0.061,0.576c4.152,0.439,8.305,0.878,12.457,1.316c-0.078,0.248-0.156,0.496-0.238,0.74
	c-3.76-0.397-7.52-0.796-11.281-1.194c-0.02,0.192-0.041,0.386-0.061,0.577c3.715,0.396,7.43,0.791,11.143,1.186
	c-0.545,1.519-1.213,2.979-1.992,4.367c-4.943-0.523-9.891-1.048-14.873-1.576c-0.158,1.533-0.297,2.925-0.445,4.314
	c-0.188,1.758-0.844,2.389-2.6,2.181c-3.332-0.395-4.705,0.126-3.971-4.392c0.062-0.391,0.07-0.791,0.137-1.181
	c0.188-1.105,0.166-2.015-0.768-2.967c-0.662-0.675-0.416-1.341-0.674-2.72c-0.131-0.705-0.928-1.988-0.938-2.746
	c-0.01-0.731,0.924-1.52,1.039-2.218c0.217-1.342-0.213-2.493,0.51-3.271c0.684-0.734,1.311-1.52,1.982-2.306
	c-2.193-0.602-2.115-0.595-1.924-2.918c0.314-3.827,0.396-3.571,3.867-3.036c1.352,0.208,2.07-0.112,2.49-1.498
	c0.508-1.679,1.281-3.278,1.943-4.909c0.559-1.377,1.74-2.159,3.227-2.004c3.307,0.344,6.613,0.696,9.918,1.05
	c0.637,0.968,1.217,1.975,1.738,3.018c-3.713-0.396-7.426-0.788-11.137-1.191c-0.609-0.066-1.057-0.044-1.336,0.67
	c-1.107,2.825-2.281,5.625-3.527,8.674C66.619,46.499,72.9,47.163,79.182,47.827z"/>
</svg>
