<svg id="c6449af1-6111-46f9-bf95-d3635d3b22dc" data-name="Calque 1" xmlns="http://www.w3.org/2000/svg" viewBox="0 0 19.32 22.04"><defs><style>.a8cea835-4a9a-44dc-bddd-6975a5e4558a{fill:#fff;}</style></defs><title>icon-message</title><path class="a8cea835-4a9a-44dc-bddd-6975a5e4558a" d="M9.66,0A9.65,9.65,0,0,0,3,16.66L2.69,22l4.59-3A9.66,9.66,0,1,0,9.66,0h0ZM6,8.55V10.5H3.87V8.89a2.36,2.36,0,0,1,.37-1.4,3,3,0,0,1,1.27-.91L6,7.43a2.21,2.21,0,0,0-.77.52A1,1,0,0,0,5,8.55H6Zm3.2,0V10.5H7.07V8.89a2.36,2.36,0,0,1,.37-1.4,3,3,0,0,1,1.27-.91L9.16,7.43a2.17,2.17,0,0,0-.77.52,1,1,0,0,0-.23.61h1Zm3.08,1.59a2.37,2.37,0,0,1-.37,1.4,3,3,0,0,1-1.27.91l-0.45-.85a2.2,2.2,0,0,0,.76-0.52,1,1,0,0,0,.23-0.6h-1V8.54h2.09v1.61Zm3.2,0a2.34,2.34,0,0,1-.37,1.4,3,3,0,0,1-1.27.91l-0.45-.85a2.2,2.2,0,0,0,.76-0.52,1,1,0,0,0,.23-0.6h-1V8.54h2.09v1.61Zm0,0"/></svg>