<svg id="026fa3d8-d678-4c1a-8078-4645874ac536" data-name="Calque 1" xmlns="http://www.w3.org/2000/svg" viewBox="0 0 489 501.83"><defs><style>.\39 857ad72-0adb-4cda-9891-c00c83f5e0ec{fill:#2e2e2e;}</style></defs><title>left-arrow</title><path class="9857ad72-0adb-4cda-9891-c00c83f5e0ec" d="M489,229.76a32,32,0,0,0-32-32H191.34L304,85a32.3,32.3,0,0,0,0-45.43L273.79,9.33a32.3,32.3,0,0,0-45.43,0L9.41,228.28a31.92,31.92,0,0,0,0,45.27L228.36,492.5a32.3,32.3,0,0,0,45.43,0L304,462.24a32.3,32.3,0,0,0,0-45.43L191.34,304.5H456.8a32.1,32.1,0,0,0,32-32Zm0,0"/></svg>