<svg id="23486140-1d0b-4e76-be51-fc4d6acc1d71" data-name="Calque 1" xmlns="http://www.w3.org/2000/svg" viewBox="0 0 81.5 75.5"><defs><style>.d2984a5a-f627-4469-8cf3-0dd3cb2eac4b{fill:#3d77bc;fill-rule:evenodd;}.\35 49148b7-3c6a-4361-84f3-41f3a56a9048{fill:#fff;}</style></defs><title>messenger-logo</title><path class="d2984a5a-f627-4469-8cf3-0dd3cb2eac4b" d="M15,53.95c-3.6-6.45-5.48-14.22-5.48-18.83A32.22,32.22,0,1,1,41.75,67.33c-2.73,0-9.58,0-14.69-3.91-2.42.85-7.36,2.67-10.93,4l-5.56,2.07Z"/><path class="549148b7-3c6a-4361-84f3-41f3a56a9048" d="M41.75,5.9a29.22,29.22,0,1,1,0,58.43c-2.91,0-9.75,0-14-4.29h0c-0.39,0-12.66,4.56-12.66,4.56l3.17-11.06c-3.65-6-5.72-13.91-5.72-18.43A29.22,29.22,0,0,1,41.75,5.9m0-6A35.26,35.26,0,0,0,6.53,35.11c0,4.61,1.66,12.27,5.26,19.18L9.32,62.95,6,74.36l11.13-4.13c3.36-1.25,7-2.59,9.44-3.46,5.65,3.57,12.34,3.57,15.13,3.57a35.22,35.22,0,1,0,0-70.43h0Z"/><polygon class="549148b7-3c6a-4361-84f3-41f3a56a9048" points="20.72 43.77 37.25 26.11 45.42 34.67 60.78 26.11 43.67 44.39 35.7 35.83 20.72 43.77"/></svg>