<svg id="52f10e77-e7c3-4ce5-8e02-b2ce15ac1c7d" data-name="Calque 1" xmlns="http://www.w3.org/2000/svg" viewBox="0 0 81.5 75.5"><defs><style>.\34 937caa9-89c5-411a-9e47-b5d70c00df13{fill:#54b262;}.\32 8c4546f-f522-4e45-bb48-f8990ed1946d,.\34 937caa9-89c5-411a-9e47-b5d70c00df13{fill-rule:evenodd;}.\32 594d76e-30e0-4ade-8a25-3ad5823a42f1,.\32 8c4546f-f522-4e45-bb48-f8990ed1946d{fill:#fff;}</style></defs><title>whatsapp-logo</title><path class="4937caa9-89c5-411a-9e47-b5d70c00df13" d="M15,53.95c-3.6-6.45-5.48-14.22-5.48-18.83A32.22,32.22,0,1,1,41.75,67.33c-2.73,0-9.58,0-14.69-3.91-2.42.85-7.36,2.67-10.93,4l-5.56,2.07Z"/><path class="2594d76e-30e0-4ade-8a25-3ad5823a42f1" d="M41.75,5.9a29.22,29.22,0,0,1,0,58.43c-2.91,0-9.75,0-14-4.29h0c-0.39,0-12.66,4.56-12.66,4.56l3.17-11.06c-3.65-6-5.72-13.91-5.72-18.43A29.22,29.22,0,0,1,41.75,5.9m0-6A35.26,35.26,0,0,0,6.53,35.11c0,4.61,1.66,12.27,5.26,19.18L9.32,62.95,6,74.36l11.13-4.13c3.36-1.25,7-2.59,9.44-3.46,5.65,3.57,12.34,3.57,15.13,3.57a35.22,35.22,0,0,0,0-70.43h0Z"/><path class="28c4546f-f522-4e45-bb48-f8990ed1946d" d="M59.23,43.06a4.42,4.42,0,0,0-1.66-1c-0.87-.43-5.13-2.51-5.92-2.8s-1.37-.43-1.95.43-2.24,2.8-2.75,3.37a1.33,1.33,0,0,1-1.87.21,23.7,23.7,0,0,1-7-4.26,26.15,26.15,0,0,1-4.82-6,1.25,1.25,0,0,1,.38-1.75c0.39-.39.87-1,1.3-1.5a5.89,5.89,0,0,0,.87-1.44,1.56,1.56,0,0,0-.07-1.5c-0.22-.43-1.95-4.66-2.67-6.38S31.65,19,31.14,19,30.06,19,29.48,19A3.19,3.19,0,0,0,27.17,20a9.61,9.61,0,0,0-3,7.17c0,4.23,3.1,8.32,3.54,8.89s6,9.54,14.8,13,8.81,2.29,10.4,2.15,5.12-2.08,5.85-4.09a7.14,7.14,0,0,0,.51-4.09h0Z"/></svg>